<svg xmlns="http://www.w3.org/2000/svg" width="512" height="512" enable-background="new 0 0 512 512" viewBox="0 0 512 512" id="first-aid">
  <path d="M274.781,146.93h-37.563v15.311h-15.311v37.563h15.311v15.31h37.563v-15.31h15.311v-37.563h-15.311V146.93z
		 M278.092,174.241v13.563h-15.311v15.31h-13.563v-15.31h-15.311v-13.563h15.311V158.93h13.563v15.311H278.092z"></path>
  <path d="M382.312,125.872h-17.181v-0.514c-17.42,0-31.593-14.173-31.593-31.594V78.449H178.462v15.315
		c0,17.421-14.173,31.594-31.593,31.594H143.7v0.514h-14.012c-40.025,0-72.588,32.563-72.588,72.588v235.091h397.799V198.459
		C454.899,158.434,422.337,125.872,382.312,125.872z M190.462,93.764v-3.315h131.076v3.315c0,12.693,5.456,24.134,14.143,32.107
		H176.32C185.006,117.898,190.462,106.458,190.462,93.764z M442.899,421.551H69.101V237.482h40.754v31.772h66.717v-31.772h157.403
		v31.772h66.717v-31.772h42.208V421.551z M121.854,257.254v-19.772h42.717v19.772H121.854z M345.975,257.254v-19.772h42.717v19.772
		H345.975z M442.899,225.482H69.101v-27.022c0-33.408,27.18-60.588,60.588-60.588h252.623c33.408,0,60.588,27.18,60.588,60.588
		V225.482z"></path>
  <path d="M293.318 335.16c-5.954-2.918-11.319-7.396-15.516-12.951-5.768-7.633-15.085-12.191-24.925-12.191-10.191 0-19.697 4.814-25.429 12.877-3.709 5.219-8.794 9.637-15.111 13.131-11.402 6.303-18.485 17.939-18.485 30.367 0 19.379 16.657 35.146 37.132 35.146h45.346c20.475 0 37.133-15.768 37.133-35.146C313.463 353.217 305.744 341.25 293.318 335.16zM276.33 389.539h-45.346c-13.857 0-25.132-10.383-25.132-23.146 0-8.063 4.71-15.674 12.292-19.865 7.904-4.371 14.326-9.982 19.086-16.68 3.484-4.902 9.334-7.83 15.647-7.83 6.1 0 11.838 2.775 15.351 7.426 5.324 7.049 12.174 12.75 19.809 16.492 8.281 4.059 13.426 11.896 13.426 20.457C301.463 379.156 290.188 389.539 276.33 389.539zM208.899 315.287v-12.582c0-9.191-7.478-16.67-16.668-16.67-9.191 0-16.669 7.479-16.669 16.67v12.582c0 9.191 7.478 16.67 16.669 16.67C201.422 331.957 208.899 324.479 208.899 315.287zM196.899 315.287c0 2.576-2.094 4.67-4.668 4.67s-4.669-2.094-4.669-4.67v-12.582c0-2.574 2.095-4.67 4.669-4.67s4.668 2.096 4.668 4.67V315.287zM230.968 303.195c9.191 0 16.669-7.479 16.669-16.668v-12.584c0-9.191-7.478-16.67-16.669-16.67s-16.669 7.479-16.669 16.67v12.584C214.299 295.717 221.776 303.195 230.968 303.195zM226.299 273.943c0-2.574 2.095-4.67 4.669-4.67s4.669 2.096 4.669 4.67v12.584c0 2.574-2.095 4.668-4.669 4.668s-4.669-2.094-4.669-4.668V273.943zM275.797 303.195c9.19 0 16.668-7.479 16.668-16.668v-12.584c0-9.191-7.478-16.67-16.668-16.67-9.191 0-16.669 7.479-16.669 16.67v12.584C259.128 295.717 266.605 303.195 275.797 303.195zM271.128 273.943c0-2.574 2.095-4.67 4.669-4.67s4.668 2.096 4.668 4.67v12.584c0 2.574-2.094 4.668-4.668 4.668s-4.669-2.094-4.669-4.668V273.943zM314.402 286.035c-9.191 0-16.669 7.479-16.669 16.67v12.582c0 9.191 7.478 16.67 16.669 16.67s16.669-7.479 16.669-16.67v-12.582C331.071 293.514 323.594 286.035 314.402 286.035zM319.071 315.287c0 2.576-2.095 4.67-4.669 4.67s-4.669-2.094-4.669-4.67v-12.582c0-2.574 2.095-4.67 4.669-4.67s4.669 2.096 4.669 4.67V315.287z"></path>
</svg>
