<svg xmlns="http://www.w3.org/2000/svg" enable-background="new 0 0 66 66" viewBox="0 0 66 66" id="first-aid-kit">
  <path fill="#f56345" d="M64,22.79v29.77c0,3.64-2.95,6.59-6.59,6.59H8.59C4.95,59.15,2,56.2,2,52.56V22.79c0-3.64,2.95-6.59,6.59-6.59h48.81C61.05,16.19,64,19.15,64,22.79z"></path>
  <path d="M64,22.78v29.78c0,3.64-2.95,6.59-6.59,6.59H8.59c-2.87,0-5.31-1.83-6.2-4.39c0.41,0.08,0.83,0.12,1.26,0.12h48.82c3.64,0,6.59-2.95,6.59-6.6V18.51c0-0.77-0.13-1.51-0.39-2.2C61.71,16.9,64,19.57,64,22.78z" opacity=".08"></path>
  <path fill="#241c70" d="M57.41,59.9H8.59c-4.05,0-7.34-3.29-7.34-7.34V22.79c0-4.05,3.29-7.34,7.34-7.34h48.81c4.05,0,7.34,3.29,7.34,7.34v29.77C64.75,56.61,61.46,59.9,57.41,59.9z M8.59,16.94c-3.22,0-5.84,2.62-5.84,5.84v29.77c0,3.22,2.62,5.84,5.84,5.84h48.81c3.22,0,5.84-2.62,5.84-5.84V22.79c0-3.22-2.62-5.84-5.84-5.84H8.59z"></path>
  <circle cx="33" cy="37.67" r="16.39" fill="#fff"></circle>
  <path d="M49.39,37.67c0,9.06-7.33,16.39-16.39,16.39c-5.79,0-10.86-2.99-13.78-7.51c2.86,2.45,6.58,3.93,10.65,3.93c9.06,0,16.4-7.33,16.4-16.39c0-3.27-0.96-6.31-2.62-8.87C47.17,28.22,49.39,32.68,49.39,37.67z" opacity=".08"></path>
  <path fill="#241c70" d="M33,54.82c-9.45,0-17.14-7.69-17.14-17.14S23.55,20.53,33,20.53s17.14,7.69,17.14,17.14S42.45,54.82,33,54.82z M33,22.03c-8.63,0-15.64,7.02-15.64,15.64S24.37,53.32,33,53.32s15.64-7.02,15.64-15.64S41.63,22.03,33,22.03z"></path>
  <path fill="#fff" d="M19.73,14.43v1.77h-8.94v-1.77c0-0.9,0.73-1.64,1.64-1.64h5.67C19,12.79,19.73,13.52,19.73,14.43z"></path>
  <path fill="#241c70" d="M19.73,16.94h-8.94c-0.41,0-0.75-0.34-0.75-0.75v-1.77c0-1.32,1.07-2.39,2.39-2.39h5.67c1.32,0,2.39,1.07,2.39,2.39v1.77C20.48,16.61,20.15,16.94,19.73,16.94z M11.54,15.44h7.44v-1.02c0-0.49-0.4-0.89-0.89-0.89h-5.67c-0.49,0-0.89,0.4-0.89,0.89V15.44z"></path>
  <path fill="#fff" d="M55.21,14.43v1.77h-8.94v-1.77c0-0.9,0.73-1.64,1.64-1.64h5.67C54.48,12.79,55.21,13.52,55.21,14.43z"></path>
  <path fill="#241c70" d="M55.21 16.94h-8.94c-.41 0-.75-.34-.75-.75v-1.77c0-1.32 1.07-2.39 2.39-2.39h5.67c1.32 0 2.39 1.07 2.39 2.39v1.77C55.96 16.61 55.62 16.94 55.21 16.94zM47.02 15.44h7.44v-1.02c0-.49-.4-.89-.89-.89H47.9c-.49 0-.89.4-.89.89V15.44zM42.3 16.94H23.7c-.41 0-.75-.34-.75-.75v-4.3c0-2.11 1.72-3.82 3.82-3.82h12.46c2.11 0 3.82 1.72 3.82 3.82v4.3C43.05 16.61 42.72 16.94 42.3 16.94zM24.45 15.44h17.11V11.9c0-1.28-1.04-2.32-2.32-2.32H26.77c-1.28 0-2.32 1.04-2.32 2.32V15.44z"></path>
  <path fill="#fff" d="M39.23,8.82L39.23,8.82c0,1.09-0.88,1.98-1.98,1.98h-8.5c-1.09,0-1.98-0.88-1.98-1.98v0c0-1.09,0.88-1.98,1.98-1.98h8.5C38.34,6.85,39.23,7.73,39.23,8.82z"></path>
  <path fill="#241c70" d="M37.25,11.55h-8.5c-1.5,0-2.73-1.22-2.73-2.73s1.22-2.72,2.73-2.72h8.5c1.5,0,2.73,1.22,2.73,2.72S38.75,11.55,37.25,11.55z M28.75,7.6c-0.68,0-1.23,0.55-1.23,1.22s0.55,1.23,1.23,1.23h8.5c0.68,0,1.23-0.55,1.23-1.23S37.93,7.6,37.25,7.6H28.75z"></path>
  <path fill="#638df9" d="M40.88,36.25v2.85c0,0.59-0.47,1.06-1.06,1.06h-4.33v4.33c0,0.59-0.47,1.06-1.06,1.06h-2.85c-0.59,0-1.06-0.47-1.06-1.06v-4.33h-4.33c-0.59,0-1.06-0.47-1.06-1.06v-2.85c0-0.59,0.47-1.06,1.06-1.06h4.33v-4.33c0-0.59,0.47-1.06,1.06-1.06h2.85c0.59,0,1.06,0.47,1.06,1.06v4.33h4.33C40.4,35.19,40.88,35.66,40.88,36.25z"></path>
  <g>
    <path fill="#fff" d="M11.07,27.06c0,0.83-0.68,1.51-1.51,1.51c-0.83,0-1.5-0.68-1.5-1.51c0-0.83,0.67-1.5,1.5-1.5C10.39,25.56,11.07,26.23,11.07,27.06z"></path>
  </g>
</svg>
